<svg width="40" height="40" viewBox="0 0 40 40" fill="none" xmlns="http://www.w3.org/2000/svg">
<circle opacity="0.05" cx="20" cy="20" r="20" fill="#0C9359"/>
<path d="M17.954 10.21C19.303 9.9271 20.6958 9.92642 22.045 10.208C22.1349 10.8013 22.3574 11.3667 22.6958 11.8621C23.0343 12.3576 23.4801 12.7705 24 13.07C24.5196 13.3705 25.1002 13.55 25.6987 13.5952C26.2973 13.6404 26.8983 13.5501 27.457 13.331C28.3753 14.359 29.0709 15.566 29.5 16.876C29.0314 17.2505 28.6532 17.7259 28.3935 18.2668C28.1338 18.8076 27.9993 19.4 28 20C28 21.264 28.586 22.391 29.502 23.124C29.0704 24.4328 28.3739 25.6389 27.456 26.667C26.8974 26.448 26.2966 26.3578 25.6983 26.403C25.0999 26.4481 24.5195 26.6276 24 26.928C23.4805 27.2274 23.0351 27.6399 22.6968 28.1351C22.3585 28.6302 22.1361 29.1951 22.046 29.788C20.6973 30.0715 19.3044 30.0729 17.955 29.792C17.8656 29.1981 17.6434 28.6322 17.3049 28.1361C16.9664 27.6401 16.5204 27.2268 16 26.927C15.4804 26.6266 14.8997 26.4472 14.3012 26.4022C13.7027 26.3572 13.1018 26.4477 12.543 26.667C11.6246 25.6386 10.9291 24.4313 10.5 23.121C10.9684 22.7466 11.3465 22.2716 11.6062 21.7311C11.8659 21.1906 12.0005 20.5986 12 19.999C12.0005 19.3989 11.8658 18.8063 11.6057 18.2655C11.3457 17.7246 10.9671 17.2493 10.498 16.875C10.9297 15.5661 11.6262 14.3601 12.544 13.332C13.1027 13.5509 13.7035 13.6412 14.3018 13.596C14.9002 13.5508 15.4806 13.3713 16 13.071C16.5196 12.7716 16.965 12.359 17.3033 11.8639C17.6416 11.3688 17.864 10.8038 17.954 10.211V10.21ZM20 23C20.7957 23 21.5588 22.6839 22.1214 22.1213C22.684 21.5587 23 20.7956 23 20C23 19.2043 22.684 18.4413 22.1214 17.8786C21.5588 17.316 20.7957 17 20 17C19.2044 17 18.4413 17.316 17.8787 17.8786C17.3161 18.4413 17 19.2043 17 20C17 20.7956 17.3161 21.5587 17.8787 22.1213C18.4413 22.6839 19.2044 23 20 23Z" fill="#0C9359"/>
</svg>
